STARTFONT 2.1
FONT -URW-ITC Avant Garde-Medium-O-Normal-Sans-10-100-72-72-P-57-ISO8859-1
SIZE 10 72 72
FONTBOUNDINGBOX 16 12 -3 -2

STARTPROPERTIES 22
FONTNAME_REGISTRY "-"
FOUNDRY "URW"
FAMILY_NAME "ITC Avant Garde"
WEIGHT_NAME "Medium"
SLANT "O"
SETWIDTH_NAME "Normal"
ADD_STYLE_NAME "Sans"
PIXEL_SIZE 10
POINT_SIZE 100
RESOLUTION_X 72
RESOLUTION_Y 72
SPACING "P"
CHARSET_REGISTRY "ISO8859"
CHARSET_ENCODING "1"
FULL_NAME "AvantGarde-BookOblique"
AVERAGE_WIDTH 57
WEIGHT 10
X_HEIGHT 6
QUAD_WIDTH 7
DEFAULT_CHAR 32
FONT_DESCENT 2
FONT_ASCENT 10
ENDPROPERTIES

CHARS 190

STARTCHAR space
ENCODING 32
SWIDTH 277 0
DWIDTH 3 0
BBX 1 1 0 0
BITMAP
00
ENDCHAR

STARTCHAR exclam
ENCODING 33
SWIDTH 295 0
DWIDTH 3 0
BBX 2 8 1 0
BITMAP
40
40
40
40
40
80
00
80
ENDCHAR

STARTCHAR quotedbl
ENCODING 34
SWIDTH 309 0
DWIDTH 3 0
BBX 2 2 2 6
BITMAP
C0
C0
ENDCHAR

STARTCHAR numbersign
ENCODING 35
SWIDTH 554 0
DWIDTH 7 0
BBX 7 8 1 0
BITMAP
14
14
7E
28
FC
50
50
50
ENDCHAR

STARTCHAR dollar
ENCODING 36
SWIDTH 554 0
DWIDTH 6 0
BBX 5 9 1 0
BITMAP
10
30
48
40
20
10
90
60
40
ENDCHAR

STARTCHAR percent
ENCODING 37
SWIDTH 775 0
DWIDTH 8 0
BBX 7 8 1 0
BITMAP
64
94
98
70
1C
32
52
4C
ENDCHAR

STARTCHAR ampersand
ENCODING 38
SWIDTH 757 0
DWIDTH 8 0
BBX 7 8 1 0
BITMAP
10
28
28
32
54
88
94
62
ENDCHAR

STARTCHAR quoteright
ENCODING 39
SWIDTH 351 0
DWIDTH 4 0
BBX 2 2 2 6
BITMAP
40
80
ENDCHAR

STARTCHAR parenleft
ENCODING 40
SWIDTH 369 0
DWIDTH 4 0
BBX 4 10 1 -2
BITMAP
10
20
40
80
80
80
80
80
40
40
ENDCHAR

STARTCHAR parenright
ENCODING 41
SWIDTH 369 0
DWIDTH 4 0
BBX 4 10 0 -2
BITMAP
60
20
10
10
10
10
20
20
40
80
ENDCHAR

STARTCHAR asterisk
ENCODING 42
SWIDTH 425 0
DWIDTH 4 0
BBX 3 4 2 4
BITMAP
40
E0
E0
40
ENDCHAR

STARTCHAR plus
ENCODING 43
SWIDTH 606 0
DWIDTH 6 0
BBX 5 5 1 1
BITMAP
20
20
F8
20
20
ENDCHAR

STARTCHAR comma
ENCODING 44
SWIDTH 277 0
DWIDTH 3 0
BBX 2 2 1 0
BITMAP
40
80
ENDCHAR

STARTCHAR minus
ENCODING 45
SWIDTH 606 0
DWIDTH 6 0
BBX 5 1 1 3
BITMAP
F8
ENDCHAR

STARTCHAR period
ENCODING 46
SWIDTH 277 0
DWIDTH 3 0
BBX 1 1 1 0
BITMAP
80
ENDCHAR

STARTCHAR slash
ENCODING 47
SWIDTH 437 0
DWIDTH 4 0
BBX 5 10 0 -2
BITMAP
08
08
10
10
20
20
40
40
80
80
ENDCHAR

STARTCHAR zero
ENCODING 48
SWIDTH 554 0
DWIDTH 6 0
BBX 5 8 1 0
BITMAP
30
48
88
88
88
88
88
70
ENDCHAR

STARTCHAR one
ENCODING 49
SWIDTH 554 0
DWIDTH 6 0
BBX 2 8 3 0
BITMAP
40
C0
40
40
40
80
80
80
ENDCHAR

STARTCHAR two
ENCODING 50
SWIDTH 554 0
DWIDTH 6 0
BBX 6 8 0 0
BITMAP
38
44
44
08
10
20
40
F8
ENDCHAR

STARTCHAR three
ENCODING 51
SWIDTH 554 0
DWIDTH 6 0
BBX 5 8 1 0
BITMAP
30
48
08
30
08
88
90
60
ENDCHAR

STARTCHAR four
ENCODING 52
SWIDTH 554 0
DWIDTH 6 0
BBX 6 8 0 0
BITMAP
0C
18
18
28
48
88
F8
10
ENDCHAR

STARTCHAR five
ENCODING 53
SWIDTH 554 0
DWIDTH 6 0
BBX 5 8 1 0
BITMAP
38
40
70
88
08
88
88
70
ENDCHAR

STARTCHAR six
ENCODING 54
SWIDTH 554 0
DWIDTH 6 0
BBX 5 8 1 0
BITMAP
18
20
70
48
88
88
88
70
ENDCHAR

STARTCHAR seven
ENCODING 55
SWIDTH 554 0
DWIDTH 6 0
BBX 5 8 1 0
BITMAP
78
08
10
10
20
40
40
80
ENDCHAR

STARTCHAR eight
ENCODING 56
SWIDTH 554 0
DWIDTH 6 0
BBX 5 8 1 0
BITMAP
30
48
48
70
88
88
88
70
ENDCHAR

STARTCHAR nine
ENCODING 57
SWIDTH 554 0
DWIDTH 6 0
BBX 5 8 1 0
BITMAP
70
88
88
88
70
10
20
C0
ENDCHAR

STARTCHAR colon
ENCODING 58
SWIDTH 277 0
DWIDTH 3 0
BBX 2 5 1 0
BITMAP
40
00
00
00
80
ENDCHAR

STARTCHAR semicolon
ENCODING 59
SWIDTH 277 0
DWIDTH 3 0
BBX 3 6 0 0
BITMAP
20
00
00
00
40
80
ENDCHAR

STARTCHAR less
ENCODING 60
SWIDTH 606 0
DWIDTH 6 0
BBX 6 6 1 0
BITMAP
0C
30
C0
40
30
08
ENDCHAR

STARTCHAR equal
ENCODING 61
SWIDTH 606 0
DWIDTH 6 0
BBX 6 3 1 2
BITMAP
FC
00
F8
ENDCHAR

STARTCHAR greater
ENCODING 62
SWIDTH 606 0
DWIDTH 6 0
BBX 6 6 1 0
BITMAP
40
30
0C
10
60
80
ENDCHAR

STARTCHAR question
ENCODING 63
SWIDTH 591 0
DWIDTH 6 0
BBX 5 8 2 0
BITMAP
30
48
88
10
20
40
00
40
ENDCHAR

STARTCHAR at
ENCODING 64
SWIDTH 867 0
DWIDTH 9 0
BBX 8 8 1 0
BITMAP
1C
62
99
A5
A5
9A
80
7C
ENDCHAR

STARTCHAR A
ENCODING 65
SWIDTH 740 0
DWIDTH 7 0
BBX 7 8 0 0
BITMAP
08
0C
14
14
24
7E
42
82
ENDCHAR

STARTCHAR B
ENCODING 66
SWIDTH 574 0
DWIDTH 6 0
BBX 5 8 1 0
BITMAP
70
48
48
70
48
88
88
F0
ENDCHAR

STARTCHAR C
ENCODING 67
SWIDTH 813 0
DWIDTH 8 0
BBX 8 8 1 0
BITMAP
1C
63
80
80
80
80
46
38
ENDCHAR

STARTCHAR D
ENCODING 68
SWIDTH 744 0
DWIDTH 7 0
BBX 7 8 1 0
BITMAP
7C
42
42
42
42
82
8C
F0
ENDCHAR

STARTCHAR E
ENCODING 69
SWIDTH 536 0
DWIDTH 5 0
BBX 5 8 1 0
BITMAP
78
40
40
78
40
80
80
F0
ENDCHAR

STARTCHAR F
ENCODING 70
SWIDTH 485 0
DWIDTH 5 0
BBX 5 8 1 0
BITMAP
78
40
40
70
40
80
80
80
ENDCHAR

STARTCHAR G
ENCODING 71
SWIDTH 872 0
DWIDTH 9 0
BBX 8 8 1 0
BITMAP
1E
21
40
80
9F
81
82
7C
ENDCHAR

STARTCHAR H
ENCODING 72
SWIDTH 683 0
DWIDTH 7 0
BBX 7 8 1 0
BITMAP
22
44
44
7C
44
88
88
88
ENDCHAR

STARTCHAR I
ENCODING 73
SWIDTH 226 0
DWIDTH 2 0
BBX 2 8 1 0
BITMAP
40
40
40
40
40
80
80
80
ENDCHAR

STARTCHAR J
ENCODING 74
SWIDTH 482 0
DWIDTH 5 0
BBX 5 8 0 0
BITMAP
08
08
08
08
10
10
90
E0
ENDCHAR

STARTCHAR K
ENCODING 75
SWIDTH 591 0
DWIDTH 6 0
BBX 7 8 1 0
BITMAP
46
48
50
60
60
90
90
88
ENDCHAR

STARTCHAR L
ENCODING 76
SWIDTH 462 0
DWIDTH 5 0
BBX 4 8 1 0
BITMAP
40
40
40
40
40
80
80
F0
ENDCHAR

STARTCHAR M
ENCODING 77
SWIDTH 919 0
DWIDTH 9 0
BBX 9 8 1 0
BITMAP
4180
4180
6280
6300
5500
9500
9900
9900
ENDCHAR

STARTCHAR N
ENCODING 78
SWIDTH 740 0
DWIDTH 7 0
BBX 7 8 1 0
BITMAP
62
62
72
52
52
8C
8C
84
ENDCHAR

STARTCHAR O
ENCODING 79
SWIDTH 869 0
DWIDTH 9 0
BBX 8 8 1 0
BITMAP
1C
22
41
81
81
82
84
78
ENDCHAR

STARTCHAR P
ENCODING 80
SWIDTH 592 0
DWIDTH 6 0
BBX 6 8 1 0
BITMAP
78
44
44
44
78
80
80
80
ENDCHAR

STARTCHAR Q
ENCODING 81
SWIDTH 871 0
DWIDTH 9 0
BBX 8 8 1 0
BITMAP
3C
42
81
81
F1
8A
46
39
ENDCHAR

STARTCHAR R
ENCODING 82
SWIDTH 607 0
DWIDTH 6 0
BBX 6 8 1 0
BITMAP
78
44
44
44
58
90
90
88
ENDCHAR

STARTCHAR S
ENCODING 83
SWIDTH 498 0
DWIDTH 5 0
BBX 5 8 1 0
BITMAP
30
48
40
20
10
88
88
70
ENDCHAR

STARTCHAR T
ENCODING 84
SWIDTH 426 0
DWIDTH 4 0
BBX 5 8 1 0
BITMAP
F8
20
20
40
40
40
80
80
ENDCHAR

STARTCHAR U
ENCODING 85
SWIDTH 655 0
DWIDTH 7 0
BBX 6 8 1 0
BITMAP
44
44
44
84
88
88
88
70
ENDCHAR

STARTCHAR V
ENCODING 86
SWIDTH 702 0
DWIDTH 7 0
BBX 7 8 1 0
BITMAP
82
84
88
48
50
50
20
20
ENDCHAR

STARTCHAR W
ENCODING 87
SWIDTH 960 0
DWIDTH 10 0
BBX 10 8 1 0
BITMAP
88C0
9480
9500
9500
A500
6600
4600
4400
ENDCHAR

STARTCHAR X
ENCODING 88
SWIDTH 609 0
DWIDTH 6 0
BBX 7 8 0 0
BITMAP
42
24
28
10
10
28
48
84
ENDCHAR

STARTCHAR Y
ENCODING 89
SWIDTH 592 0
DWIDTH 6 0
BBX 6 8 1 0
BITMAP
84
88
50
50
60
40
40
40
ENDCHAR

STARTCHAR Z
ENCODING 90
SWIDTH 480 0
DWIDTH 5 0
BBX 6 8 0 0
BITMAP
7C
04
08
10
20
40
80
F8
ENDCHAR

STARTCHAR bracketleft
ENCODING 91
SWIDTH 351 0
DWIDTH 4 0
BBX 3 10 1 -2
BITMAP
20
40
40
80
80
80
80
80
80
40
ENDCHAR

STARTCHAR backslash
ENCODING 92
SWIDTH 605 0
DWIDTH 6 0
BBX 3 8 2 0
BITMAP
80
80
80
40
40
40
20
20
ENDCHAR

STARTCHAR bracketright
ENCODING 93
SWIDTH 351 0
DWIDTH 4 0
BBX 3 10 0 -2
BITMAP
60
20
20
20
20
20
20
20
40
80
ENDCHAR

STARTCHAR asciicircum
ENCODING 94
SWIDTH 606 0
DWIDTH 7 0
BBX 6 6 1 2
BITMAP
10
30
28
48
48
84
ENDCHAR

STARTCHAR underscore
ENCODING 95
SWIDTH 500 0
DWIDTH 5 0
BBX 5 1 0 -2
BITMAP
F8
ENDCHAR

STARTCHAR quoteleft
ENCODING 96
SWIDTH 351 0
DWIDTH 4 0
BBX 1 2 2 6
BITMAP
80
80
ENDCHAR

STARTCHAR a
ENCODING 97
SWIDTH 683 0
DWIDTH 7 0
BBX 6 6 1 0
BITMAP
34
4C
84
84
8C
74
ENDCHAR

STARTCHAR b
ENCODING 98
SWIDTH 682 0
DWIDTH 7 0
BBX 6 8 1 0
BITMAP
40
40
58
64
44
84
C8
B0
ENDCHAR

STARTCHAR c
ENCODING 99
SWIDTH 647 0
DWIDTH 6 0
BBX 6 6 1 0
BITMAP
38
44
80
80
8C
70
ENDCHAR

STARTCHAR d
ENCODING 100
SWIDTH 685 0
DWIDTH 7 0
BBX 7 8 1 0
BITMAP
02
04
34
4C
84
84
8C
74
ENDCHAR

STARTCHAR e
ENCODING 101
SWIDTH 650 0
DWIDTH 6 0
BBX 6 6 1 0
BITMAP
78
84
FC
80
8C
70
ENDCHAR

STARTCHAR f
ENCODING 102
SWIDTH 314 0
DWIDTH 3 0
BBX 3 8 1 0
BITMAP
20
40
E0
40
80
80
80
80
ENDCHAR

STARTCHAR g
ENCODING 103
SWIDTH 673 0
DWIDTH 7 0
BBX 7 8 1 -2
BITMAP
3E
44
84
84
8C
74
88
70
ENDCHAR

STARTCHAR h
ENCODING 104
SWIDTH 610 0
DWIDTH 6 0
BBX 5 8 1 0
BITMAP
40
40
70
48
48
88
88
88
ENDCHAR

STARTCHAR i
ENCODING 105
SWIDTH 200 0
DWIDTH 2 0
BBX 2 8 1 0
BITMAP
40
00
40
40
80
80
80
80
ENDCHAR

STARTCHAR j
ENCODING 106
SWIDTH 203 0
DWIDTH 2 0
BBX 4 10 0 -2
BITMAP
30
00
20
20
20
20
20
20
40
80
ENDCHAR

STARTCHAR k
ENCODING 107
SWIDTH 502 0
DWIDTH 5 0
BBX 5 8 1 0
BITMAP
40
40
48
50
60
C0
A0
90
ENDCHAR

STARTCHAR l
ENCODING 108
SWIDTH 200 0
DWIDTH 2 0
BBX 2 8 1 0
BITMAP
40
40
40
40
40
80
80
80
ENDCHAR

STARTCHAR m
ENCODING 109
SWIDTH 938 0
DWIDTH 9 0
BBX 9 6 1 0
BITMAP
5B00
6480
4480
4480
8900
8900
ENDCHAR

STARTCHAR n
ENCODING 110
SWIDTH 610 0
DWIDTH 6 0
BBX 5 6 1 0
BITMAP
50
68
48
88
90
90
ENDCHAR

STARTCHAR o
ENCODING 111
SWIDTH 655 0
DWIDTH 7 0
BBX 6 6 1 0
BITMAP
38
44
84
84
88
70
ENDCHAR

STARTCHAR p
ENCODING 112
SWIDTH 682 0
DWIDTH 7 0
BBX 7 8 0 -2
BITMAP
5C
62
42
42
44
B8
80
80
ENDCHAR

STARTCHAR q
ENCODING 113
SWIDTH 682 0
DWIDTH 7 0
BBX 6 8 1 -2
BITMAP
34
4C
84
84
8C
78
08
08
ENDCHAR

STARTCHAR r
ENCODING 114
SWIDTH 301 0
DWIDTH 3 0
BBX 3 6 1 0
BITMAP
40
60
40
80
80
80
ENDCHAR

STARTCHAR s
ENCODING 115
SWIDTH 388 0
DWIDTH 4 0
BBX 4 6 0 0
BITMAP
30
40
20
10
90
60
ENDCHAR

STARTCHAR t
ENCODING 116
SWIDTH 339 0
DWIDTH 3 0
BBX 3 8 1 0
BITMAP
20
20
E0
40
40
80
80
80
ENDCHAR

STARTCHAR u
ENCODING 117
SWIDTH 608 0
DWIDTH 6 0
BBX 6 6 1 0
BITMAP
44
44
88
88
98
68
ENDCHAR

STARTCHAR v
ENCODING 118
SWIDTH 554 0
DWIDTH 6 0
BBX 6 6 1 0
BITMAP
84
88
90
50
60
20
ENDCHAR

STARTCHAR w
ENCODING 119
SWIDTH 831 0
DWIDTH 8 0
BBX 8 6 1 0
BITMAP
81
91
92
AA
44
44
ENDCHAR

STARTCHAR x
ENCODING 120
SWIDTH 480 0
DWIDTH 5 0
BBX 6 6 0 0
BITMAP
44
28
10
30
50
88
ENDCHAR

STARTCHAR y
ENCODING 121
SWIDTH 536 0
DWIDTH 5 0
BBX 6 8 1 -2
BITMAP
84
88
90
50
60
40
40
80
ENDCHAR

STARTCHAR z
ENCODING 122
SWIDTH 425 0
DWIDTH 4 0
BBX 5 6 0 0
BITMAP
78
10
20
40
80
F0
ENDCHAR

STARTCHAR braceleft
ENCODING 123
SWIDTH 351 0
DWIDTH 4 0
BBX 3 10 1 -2
BITMAP
20
40
40
40
80
80
80
80
80
C0
ENDCHAR

STARTCHAR bar
ENCODING 124
SWIDTH 672 0
DWIDTH 7 0
BBX 2 8 3 0
BITMAP
40
40
40
80
80
80
80
80
ENDCHAR

STARTCHAR braceright
ENCODING 125
SWIDTH 351 0
DWIDTH 4 0
BBX 3 10 0 -2
BITMAP
60
20
20
20
20
20
40
40
40
80
ENDCHAR

STARTCHAR asciitilde
ENCODING 126
SWIDTH 606 0
DWIDTH 6 0
BBX 5 2 1 2
BITMAP
48
B0
ENDCHAR

STARTCHAR exclamdown
ENCODING 161
SWIDTH 295 0
DWIDTH 3 0
BBX 2 8 1 -2
BITMAP
40
00
40
40
80
80
80
80
ENDCHAR

STARTCHAR cent
ENCODING 162
SWIDTH 554 0
DWIDTH 6 0
BBX 5 7 1 1
BITMAP
10
70
88
80
88
70
40
ENDCHAR

STARTCHAR sterling
ENCODING 163
SWIDTH 554 0
DWIDTH 6 0
BBX 6 8 1 0
BITMAP
38
44
40
F8
40
24
24
F8
ENDCHAR

STARTCHAR currency
ENCODING 164
SWIDTH 554 0
DWIDTH 6 0
BBX 6 6 1 0
BITMAP
7C
48
88
88
50
F8
ENDCHAR

STARTCHAR yen
ENCODING 165
SWIDTH 554 0
DWIDTH 6 0
BBX 7 8 1 0
BITMAP
82
44
48
D8
20
F8
20
20
ENDCHAR

STARTCHAR brokenbar
ENCODING 166
SWIDTH 672 0
DWIDTH 7 0
BBX 2 8 3 0
BITMAP
40
40
40
40
00
80
80
80
ENDCHAR

STARTCHAR section
ENCODING 167
SWIDTH 615 0
DWIDTH 6 0
BBX 5 10 1 -2
BITMAP
30
48
40
70
88
48
30
10
90
60
ENDCHAR

STARTCHAR dieresis
ENCODING 168
SWIDTH 369 0
DWIDTH 4 0
BBX 2 1 2 7
BITMAP
C0
ENDCHAR

STARTCHAR copyright
ENCODING 169
SWIDTH 747 0
DWIDTH 7 0
BBX 8 8 0 0
BITMAP
1C
22
59
A5
A1
BA
44
38
ENDCHAR

STARTCHAR ordfeminine
ENCODING 170
SWIDTH 369 0
DWIDTH 4 0
BBX 4 5 1 3
BITMAP
70
50
70
10
F0
ENDCHAR

STARTCHAR guillemotleft
ENCODING 171
SWIDTH 425 0
DWIDTH 4 0
BBX 4 4 1 1
BITMAP
50
A0
A0
50
ENDCHAR

STARTCHAR logicalnot
ENCODING 172
SWIDTH 606 0
DWIDTH 6 0
BBX 5 3 1 1
BITMAP
F8
08
08
ENDCHAR

STARTCHAR hyphen
ENCODING 173
SWIDTH 332 0
DWIDTH 3 0
BBX 3 1 1 2
BITMAP
E0
ENDCHAR

STARTCHAR registered
ENCODING 174
SWIDTH 747 0
DWIDTH 7 0
BBX 8 8 0 0
BITMAP
1C
22
5D
95
A9
AA
44
38
ENDCHAR

STARTCHAR macron
ENCODING 175
SWIDTH 485 0
DWIDTH 5 0
BBX 3 1 2 6
BITMAP
E0
ENDCHAR

STARTCHAR degree
ENCODING 176
SWIDTH 400 0
DWIDTH 6 0
BBX 4 4 2 4
BITMAP
60
90
90
60
ENDCHAR

STARTCHAR plusminus
ENCODING 177
SWIDTH 606 0
DWIDTH 6 0
BBX 6 7 0 0
BITMAP
10
10
7C
10
10
10
F8
ENDCHAR

STARTCHAR twosuperior
ENCODING 178
SWIDTH 332 0
DWIDTH 3 0
BBX 3 4 -1 4
BITMAP
60
20
40
E0
ENDCHAR

STARTCHAR threesuperior
ENCODING 179
SWIDTH 332 0
DWIDTH 3 0
BBX 3 4 -2 4
BITMAP
60
40
20
C0
ENDCHAR

STARTCHAR acute
ENCODING 180
SWIDTH 375 0
DWIDTH 4 0
BBX 2 2 2 6
BITMAP
40
80
ENDCHAR

STARTCHAR mu
ENCODING 181
SWIDTH 608 0
DWIDTH 6 0
BBX 6 8 0 -2
BITMAP
44
44
44
44
4C
B4
80
80
ENDCHAR

STARTCHAR paragraph
ENCODING 182
SWIDTH 564 0
DWIDTH 6 0
BBX 5 10 1 -2
BITMAP
78
E8
E8
E8
50
50
50
50
50
50
ENDCHAR

STARTCHAR periodcentered
ENCODING 183
SWIDTH 277 0
DWIDTH 5 0
BBX 1 2 3 3
BITMAP
80
80
ENDCHAR

STARTCHAR cedilla
ENCODING 184
SWIDTH 324 0
DWIDTH 3 0
BBX 2 2 0 -2
BITMAP
C0
C0
ENDCHAR

STARTCHAR onesuperior
ENCODING 185
SWIDTH 332 0
DWIDTH 3 0
BBX 1 4 -3 4
BITMAP
80
80
80
80
ENDCHAR

STARTCHAR ordmasculine
ENCODING 186
SWIDTH 369 0
DWIDTH 4 0
BBX 4 5 1 3
BITMAP
60
90
90
60
E0
ENDCHAR

STARTCHAR guillemotright
ENCODING 187
SWIDTH 425 0
DWIDTH 4 0
BBX 4 4 1 1
BITMAP
A0
50
50
A0
ENDCHAR

STARTCHAR onequarter
ENCODING 188
SWIDTH 831 0
DWIDTH 8 0
BBX 6 8 4 0
BITMAP
84
88
90
90
24
4C
5C
84
ENDCHAR

STARTCHAR onehalf
ENCODING 189
SWIDTH 831 0
DWIDTH 8 0
BBX 6 8 4 0
BITMAP
84
88
90
90
2C
44
48
9C
ENDCHAR

STARTCHAR threequarters
ENCODING 190
SWIDTH 831 0
DWIDTH 8 0
BBX 7 8 5 0
BITMAP
62
44
28
E8
12
26
2E
42
ENDCHAR

STARTCHAR questiondown
ENCODING 191
SWIDTH 591 0
DWIDTH 6 0
BBX 5 8 1 -2
BITMAP
10
00
20
20
40
88
90
60
ENDCHAR

STARTCHAR Agrave
ENCODING 192
SWIDTH 740 0
DWIDTH 7 0
BBX 7 10 0 0
BITMAP
08
04
00
08
14
14
24
7E
42
82
ENDCHAR

STARTCHAR Aacute
ENCODING 193
SWIDTH 740 0
DWIDTH 7 0
BBX 7 10 0 0
BITMAP
04
00
0C
0C
14
24
24
7E
42
82
ENDCHAR

STARTCHAR Acircumflex
ENCODING 194
SWIDTH 740 0
DWIDTH 7 0
BBX 7 10 0 0
BITMAP
0C
12
00
0C
14
24
24
7E
42
82
ENDCHAR

STARTCHAR Atilde
ENCODING 195
SWIDTH 740 0
DWIDTH 7 0
BBX 7 9 0 0
BITMAP
0E
00
08
18
14
24
7E
42
82
ENDCHAR

STARTCHAR Adieresis
ENCODING 196
SWIDTH 740 0
DWIDTH 7 0
BBX 7 9 0 0
BITMAP
14
00
0C
14
14
24
7E
42
82
ENDCHAR

STARTCHAR Aring
ENCODING 197
SWIDTH 740 0
DWIDTH 7 0
BBX 7 10 0 0
BITMAP
0C
0C
00
08
08
14
24
7E
42
82
ENDCHAR

STARTCHAR AE
ENCODING 198
SWIDTH 992 0
DWIDTH 10 0
BBX 11 8 0 0
BITMAP
03E0
0600
0A00
13C0
3E00
2400
4400
8780
ENDCHAR

STARTCHAR Ccedilla
ENCODING 199
SWIDTH 813 0
DWIDTH 8 0
BBX 8 10 1 -2
BITMAP
1C
63
80
80
80
80
86
78
10
30
ENDCHAR

STARTCHAR Egrave
ENCODING 200
SWIDTH 536 0
DWIDTH 5 0
BBX 5 10 1 0
BITMAP
20
10
78
40
40
78
40
80
80
F0
ENDCHAR

STARTCHAR Eacute
ENCODING 201
SWIDTH 536 0
DWIDTH 5 0
BBX 5 10 1 0
BITMAP
10
20
78
40
40
78
40
80
80
F0
ENDCHAR

STARTCHAR Ecircumflex
ENCODING 202
SWIDTH 536 0
DWIDTH 5 0
BBX 6 10 1 0
BITMAP
18
24
78
40
40
78
40
80
80
F0
ENDCHAR

STARTCHAR Edieresis
ENCODING 203
SWIDTH 536 0
DWIDTH 5 0
BBX 5 9 1 0
BITMAP
30
78
40
40
78
40
80
80
F0
ENDCHAR

STARTCHAR Igrave
ENCODING 204
SWIDTH 226 0
DWIDTH 2 0
BBX 3 10 1 0
BITMAP
40
20
40
40
40
40
40
80
80
80
ENDCHAR

STARTCHAR Iacute
ENCODING 205
SWIDTH 226 0
DWIDTH 2 0
BBX 3 10 1 0
BITMAP
20
40
40
40
40
40
40
80
80
80
ENDCHAR

STARTCHAR Icircumflex
ENCODING 206
SWIDTH 226 0
DWIDTH 2 0
BBX 4 10 1 0
BITMAP
60
90
40
40
40
40
40
80
80
80
ENDCHAR

STARTCHAR Idieresis
ENCODING 207
SWIDTH 226 0
DWIDTH 2 0
BBX 3 9 1 0
BITMAP
A0
00
40
40
40
40
80
80
80
ENDCHAR

STARTCHAR Eth
ENCODING 208
SWIDTH 790 0
DWIDTH 8 0
BBX 7 8 1 0
BITMAP
7C
46
42
F2
82
82
8C
F0
ENDCHAR

STARTCHAR Ntilde
ENCODING 209
SWIDTH 740 0
DWIDTH 7 0
BBX 7 9 1 0
BITMAP
1C
42
62
62
52
52
8C
8C
84
ENDCHAR

STARTCHAR Ograve
ENCODING 210
SWIDTH 869 0
DWIDTH 9 0
BBX 8 10 1 0
BITMAP
08
04
1C
22
41
81
81
82
84
78
ENDCHAR

STARTCHAR Oacute
ENCODING 211
SWIDTH 869 0
DWIDTH 9 0
BBX 8 10 1 0
BITMAP
04
00
1C
22
41
81
81
82
84
78
ENDCHAR

STARTCHAR Ocircumflex
ENCODING 212
SWIDTH 869 0
DWIDTH 9 0
BBX 8 10 1 0
BITMAP
0C
12
1C
22
41
81
81
82
84
78
ENDCHAR

STARTCHAR Otilde
ENCODING 213
SWIDTH 869 0
DWIDTH 9 0
BBX 8 9 1 0
BITMAP
1C
1C
22
41
81
81
82
84
78
ENDCHAR

STARTCHAR Odieresis
ENCODING 214
SWIDTH 869 0
DWIDTH 9 0
BBX 8 9 1 0
BITMAP
14
1C
22
41
81
81
82
84
78
ENDCHAR

STARTCHAR multiply
ENCODING 215
SWIDTH 606 0
DWIDTH 6 0
BBX 5 5 1 1
BITMAP
88
50
20
50
90
ENDCHAR

STARTCHAR Oslash
ENCODING 216
SWIDTH 868 0
DWIDTH 9 0
BBX 9 8 1 0
BITMAP
1D80
2200
4500
8900
9100
A200
4400
B800
ENDCHAR

STARTCHAR Ugrave
ENCODING 217
SWIDTH 655 0
DWIDTH 7 0
BBX 6 10 1 0
BITMAP
20
10
44
84
84
84
88
88
88
70
ENDCHAR

STARTCHAR Uacute
ENCODING 218
SWIDTH 655 0
DWIDTH 7 0
BBX 6 10 1 0
BITMAP
10
20
84
84
84
84
88
88
88
70
ENDCHAR

STARTCHAR Ucircumflex
ENCODING 219
SWIDTH 655 0
DWIDTH 7 0
BBX 6 10 1 0
BITMAP
18
24
00
44
84
84
88
88
88
70
ENDCHAR

STARTCHAR Udieresis
ENCODING 220
SWIDTH 655 0
DWIDTH 7 0
BBX 6 9 1 0
BITMAP
28
00
44
84
84
88
88
88
70
ENDCHAR

STARTCHAR Yacute
ENCODING 221
SWIDTH 592 0
DWIDTH 6 0
BBX 6 10 1 0
BITMAP
10
20
84
88
50
50
60
40
40
40
ENDCHAR

STARTCHAR Thorn
ENCODING 222
SWIDTH 592 0
DWIDTH 6 0
BBX 6 8 1 0
BITMAP
40
78
44
44
48
F0
80
80
ENDCHAR

STARTCHAR germandbls
ENCODING 223
SWIDTH 554 0
DWIDTH 6 0
BBX 5 8 1 0
BITMAP
30
48
48
70
48
88
C8
B0
ENDCHAR

STARTCHAR agrave
ENCODING 224
SWIDTH 683 0
DWIDTH 7 0
BBX 6 8 1 0
BITMAP
10
08
34
4C
84
84
8C
74
ENDCHAR

STARTCHAR aacute
ENCODING 225
SWIDTH 683 0
DWIDTH 7 0
BBX 6 8 1 0
BITMAP
08
10
34
4C
84
84
8C
74
ENDCHAR

STARTCHAR acircumflex
ENCODING 226
SWIDTH 683 0
DWIDTH 7 0
BBX 6 8 1 0
BITMAP
18
24
00
74
8C
84
8C
74
ENDCHAR

STARTCHAR atilde
ENCODING 227
SWIDTH 683 0
DWIDTH 7 0
BBX 6 7 1 0
BITMAP
38
00
74
8C
84
8C
74
ENDCHAR

STARTCHAR adieresis
ENCODING 228
SWIDTH 683 0
DWIDTH 7 0
BBX 6 7 1 0
BITMAP
28
00
74
8C
84
8C
74
ENDCHAR

STARTCHAR aring
ENCODING 229
SWIDTH 683 0
DWIDTH 7 0
BBX 6 8 1 0
BITMAP
18
18
00
74
8C
84
8C
74
ENDCHAR

STARTCHAR ae
ENCODING 230
SWIDTH 1157 0
DWIDTH 12 0
BBX 11 6 1 0
BITMAP
35C0
4E20
87E0
8400
8E20
75C0
ENDCHAR

STARTCHAR ccedilla
ENCODING 231
SWIDTH 647 0
DWIDTH 6 0
BBX 6 8 1 -2
BITMAP
38
44
80
80
8C
70
20
60
ENDCHAR

STARTCHAR egrave
ENCODING 232
SWIDTH 650 0
DWIDTH 6 0
BBX 6 8 1 0
BITMAP
10
08
78
84
FC
80
8C
70
ENDCHAR

STARTCHAR eacute
ENCODING 233
SWIDTH 650 0
DWIDTH 6 0
BBX 6 8 1 0
BITMAP
08
10
78
84
FC
80
8C
70
ENDCHAR

STARTCHAR ecircumflex
ENCODING 234
SWIDTH 650 0
DWIDTH 6 0
BBX 6 8 1 0
BITMAP
18
24
78
84
FC
80
8C
70
ENDCHAR

STARTCHAR edieresis
ENCODING 235
SWIDTH 650 0
DWIDTH 6 0
BBX 6 7 1 0
BITMAP
28
78
84
FC
80
8C
70
ENDCHAR

STARTCHAR igrave
ENCODING 236
SWIDTH 200 0
DWIDTH 2 0
BBX 3 8 1 0
BITMAP
40
20
40
40
80
80
80
80
ENDCHAR

STARTCHAR iacute
ENCODING 237
SWIDTH 200 0
DWIDTH 2 0
BBX 3 8 1 0
BITMAP
20
00
40
40
80
80
80
80
ENDCHAR

STARTCHAR icircumflex
ENCODING 238
SWIDTH 200 0
DWIDTH 2 0
BBX 4 8 1 0
BITMAP
60
90
40
40
80
80
80
80
ENDCHAR

STARTCHAR idieresis
ENCODING 239
SWIDTH 200 0
DWIDTH 2 0
BBX 3 7 1 0
BITMAP
A0
40
40
80
80
80
80
ENDCHAR

STARTCHAR eth
ENCODING 240
SWIDTH 655 0
DWIDTH 7 0
BBX 6 8 1 0
BITMAP
38
18
3C
44
84
84
88
70
ENDCHAR

STARTCHAR ntilde
ENCODING 241
SWIDTH 610 0
DWIDTH 6 0
BBX 5 7 1 0
BITMAP
38
00
58
68
48
90
90
ENDCHAR

STARTCHAR ograve
ENCODING 242
SWIDTH 655 0
DWIDTH 7 0
BBX 6 8 1 0
BITMAP
10
08
38
44
84
84
88
70
ENDCHAR

STARTCHAR oacute
ENCODING 243
SWIDTH 655 0
DWIDTH 7 0
BBX 6 8 1 0
BITMAP
08
10
38
44
84
84
88
70
ENDCHAR

STARTCHAR ocircumflex
ENCODING 244
SWIDTH 655 0
DWIDTH 7 0
BBX 6 8 1 0
BITMAP
18
24
38
44
84
84
88
70
ENDCHAR

STARTCHAR otilde
ENCODING 245
SWIDTH 655 0
DWIDTH 7 0
BBX 6 7 1 0
BITMAP
38
38
44
84
84
88
70
ENDCHAR

STARTCHAR odieresis
ENCODING 246
SWIDTH 655 0
DWIDTH 7 0
BBX 6 7 1 0
BITMAP
28
38
44
84
84
88
70
ENDCHAR

STARTCHAR divide
ENCODING 247
SWIDTH 606 0
DWIDTH 6 0
BBX 5 3 1 3
BITMAP
20
F8
20
ENDCHAR

STARTCHAR oslash
ENCODING 248
SWIDTH 653 0
DWIDTH 7 0
BBX 6 6 1 0
BITMAP
34
48
94
A4
48
B0
ENDCHAR

STARTCHAR ugrave
ENCODING 249
SWIDTH 608 0
DWIDTH 6 0
BBX 6 8 1 0
BITMAP
20
10
44
44
88
88
98
68
ENDCHAR

STARTCHAR uacute
ENCODING 250
SWIDTH 608 0
DWIDTH 6 0
BBX 6 8 1 0
BITMAP
08
10
44
44
88
88
98
68
ENDCHAR

STARTCHAR ucircumflex
ENCODING 251
SWIDTH 608 0
DWIDTH 6 0
BBX 6 8 1 0
BITMAP
18
24
00
44
88
88
98
68
ENDCHAR

STARTCHAR udieresis
ENCODING 252
SWIDTH 608 0
DWIDTH 6 0
BBX 6 7 1 0
BITMAP
30
44
44
88
88
98
68
ENDCHAR

STARTCHAR yacute
ENCODING 253
SWIDTH 536 0
DWIDTH 5 0
BBX 6 10 1 -2
BITMAP
10
20
84
88
90
50
60
40
40
80
ENDCHAR

STARTCHAR thorn
ENCODING 254
SWIDTH 682 0
DWIDTH 7 0
BBX 7 10 0 -2
BITMAP
40
40
5C
62
42
42
44
B8
80
80
ENDCHAR

STARTCHAR ydieresis
ENCODING 255
SWIDTH 536 0
DWIDTH 5 0
BBX 6 9 1 -2
BITMAP
30
84
88
90
50
60
40
40
80
ENDCHAR
ENDFONT
